<?xml version="1.0" encoding="UTF-8" standalone="no"?>
<svg
   xmlns:dc="http://purl.org/dc/elements/1.1/"
   xmlns:cc="http://creativecommons.org/ns#"
   xmlns:rdf="http://www.w3.org/1999/02/22-rdf-syntax-ns#"
   xmlns:svg="http://www.w3.org/2000/svg"
   xmlns="http://www.w3.org/2000/svg"
   xmlns:sodipodi="http://sodipodi.sourceforge.net/DTD/sodipodi-0.dtd"
   xmlns:inkscape="http://www.inkscape.org/namespaces/inkscape"
   enable-background="new 0 0 128 128"
   height="128px"
   id="Layer_1"
   version="1.1"
   viewBox="0 0 128 128"
   width="128px"
   xml:space="preserve"
   sodipodi:docname="404_avatar.svg"
   inkscape:version="0.92+devel unknown"
   inkscape:export-filename="404_avatar_large.png"
   inkscape:export-xdpi="360"
   inkscape:export-ydpi="360"><metadata
     id="metadata11"><rdf:RDF><cc:Work
         rdf:about=""><dc:format>image/svg+xml</dc:format><dc:type
           rdf:resource="http://purl.org/dc/dcmitype/StillImage" /></cc:Work></rdf:RDF></metadata><defs
     id="defs9" /><sodipodi:namedview
     pagecolor="#ffffff"
     bordercolor="#666666"
     inkscape:document-rotation="0"
     borderopacity="1"
     objecttolerance="10"
     gridtolerance="10"
     guidetolerance="10"
     inkscape:pageopacity="0"
     inkscape:pageshadow="2"
     inkscape:window-width="1597"
     inkscape:window-height="798"
     id="namedview7"
     showgrid="false"
     inkscape:zoom="3.0625"
     inkscape:cx="8.6430247"
     inkscape:cy="78.937397"
     inkscape:window-x="26"
     inkscape:window-y="23"
     inkscape:window-maximized="0"
     inkscape:current-layer="Layer_1" /><rect
     style="opacity:1;fill:#d3d3da;fill-opacity:1;stroke:none;stroke-width:3.69257259"
     id="rect4265"
     width="128"
     height="128"
     x="0"
     y="-3.695488e-06"
     ry="0" /><path
     d="m 65.100948,83.443709 c -14.779849,0 -26.805357,-12.024557 -26.805357,-26.805356 V 43.40782 c 0,-14.78175 12.025508,-26.807258 26.805357,-26.807258 14.78175,0 26.807258,12.025508 26.807258,26.807258 v 13.230533 c 0,14.780799 -12.025508,26.805356 -26.807258,26.805356 z m 0,-63.038811 c -12.682708,0 -23.00102,10.319264 -23.00102,23.002922 v 13.230533 c 0,12.681756 10.318312,23.001019 23.00102,23.001019 12.683658,0 23.002922,-10.319263 23.002922,-23.001019 V 43.40782 c 0,-12.683658 -10.319264,-23.002922 -23.002922,-23.002922 z"
     id="path2"
     inkscape:connector-curvature="0"
     style="stroke-width:0.9510842" /><path
     d="M 101.29065,111.70898 H 28.523201 c -6.199167,0 -11.240864,-5.0436 -11.240864,-11.24182 v -8.306764 c 0,-3.668332 1.857467,-8.585437 10.709208,-11.163826 l 10.883256,-3.013035 c 1.014807,-0.276766 2.061,0.313858 2.340618,1.326762 0.279619,1.012905 -0.313857,2.060049 -1.326762,2.340618 l -10.858528,3.005426 c -7.944406,2.314939 -7.944406,6.221042 -7.944406,7.505006 v 8.306773 c 0,4.10202 3.336403,7.43747 7.436527,7.43747 h 72.76745 c 4.10108,0 7.43653,-3.3364 7.43653,-7.43747 v -8.306773 c 0,-3.4648 -2.67825,-5.99088 -7.96248,-7.509761 L 90.404542,81.755535 c -1.011953,-0.282472 -1.603528,-1.331518 -1.320105,-2.344423 0.283424,-1.011002 1.329616,-1.606381 2.343472,-1.319154 l 10.372521,2.899856 c 8.86982,2.550808 10.72919,7.482179 10.72919,11.169533 v 8.306773 c 0.002,6.19726 -5.0398,11.24086 -11.23897,11.24086 z"
     id="path4"
     inkscape:connector-curvature="0"
     style="stroke-width:0.9510842" /><text
     xml:space="preserve"
     style="font-style:normal;font-variant:normal;font-weight:normal;font-stretch:normal;font-size:48px;line-height:25px;font-family:Calibri;-inkscape-font-specification:Calibri;letter-spacing:0px;word-spacing:0px;fill:#000000;fill-opacity:1;stroke:none"
     x="55.17857"
     y="63.808674"
     id="text4269"><tspan
       sodipodi:role="line"
       id="tspan4267"
       x="55.17857"
       y="63.808674">?</tspan></text>
</svg>